<svg fill="none" xmlns="http://www.w3.org/2000/svg" viewBox="3.78 1.25 17.75 21.82"><path fill-rule="evenodd" clip-rule="evenodd" d="M16.98 1.28a4.872 4.872 0 0 1-1.114 3.49 4.099 4.099 0 0 1-3.237 1.53 4.636 4.636 0 0 1 1.144-3.36 4.957 4.957 0 0 1 3.207-1.66Zm3.974 7.428a4.949 4.949 0 0 0-2.357 4.152 4.782 4.782 0 0 0 2.92 4.4 10.963 10.963 0 0 1-1.519 3.092c-.894 1.338-1.832 2.645-3.32 2.669-.708.016-1.186-.187-1.684-.4-.52-.22-1.06-.451-1.907-.451-.899 0-1.464.238-2.01.467-.47.198-.927.39-1.57.417-1.417.053-2.5-1.428-3.427-2.753-1.853-2.707-3.296-7.628-1.362-10.976a5.315 5.315 0 0 1 4.473-2.728c.804-.017 1.576.293 2.252.565.517.208.979.393 1.357.393.332 0 .78-.178 1.304-.386.824-.326 1.832-.727 2.859-.619 1.596.05 3.075.85 3.99 2.158Z" fill="#fff"/></svg>