<svg xmlns="http://www.w3.org/2000/svg" width="22" height="22"><path style="stroke:none;fill-rule:nonzero;fill:#000;fill-opacity:1" d="M20.504 5.613a11.103 11.103 0 0 0-4-4.101C14.82.504 12.984 0 10.988 0 8.996 0 7.156.504 5.473 1.512a11.103 11.103 0 0 0-4 4.101C.493 7.34 0 9.227 0 11.273c0 2.454.7 4.665 2.098 6.625 1.394 1.961 3.199 3.317 5.414 4.07.258.052.449.016.574-.1a.576.576 0 0 0 .184-.438l-.008-.797c-.004-.496-.008-.934-.008-1.305l-.328.059a3.849 3.849 0 0 1-.793.05 5.667 5.667 0 0 1-.996-.101 2.214 2.214 0 0 1-.957-.441 1.87 1.87 0 0 1-.633-.899l-.14-.34c-.122-.27-.27-.52-.45-.75-.207-.273-.414-.457-.625-.554l-.098-.075a1.001 1.001 0 0 1-.316-.382c-.027-.07-.004-.125.07-.168.078-.047.215-.067.418-.067l.285.043c.192.04.426.156.707.352.286.199.512.453.696.765.218.403.484.707.793.918.312.207.625.313.937.313.317 0 .586-.024.817-.07.226-.051.441-.126.644-.223.086-.656.32-1.16.7-1.512a9.84 9.84 0 0 1-1.465-.262 5.758 5.758 0 0 1-1.344-.574 3.818 3.818 0 0 1-1.153-.984c-.308-.39-.558-.906-.753-1.54-.196-.636-.293-1.37-.293-2.202 0-1.184.378-2.192 1.132-3.024-.355-.89-.32-1.887.098-2.996.277-.086.688-.02 1.23.2.543.222.942.41 1.196.566.254.156.457.289.61.398a9.776 9.776 0 0 1 2.745-.383c.946 0 1.86.125 2.75.383l.543-.355c.371-.235.809-.45 1.317-.645.504-.195.89-.25 1.156-.164.43 1.11.469 2.106.117 2.996.75.832 1.129 1.84 1.129 3.024 0 .832-.098 1.57-.293 2.207-.195.644-.45 1.156-.758 1.543-.324.398-.715.73-1.16.976a5.84 5.84 0 0 1-1.344.574 9.41 9.41 0 0 1-1.468.262c.496.442.746 1.137.746 2.086v3.094c0 .176.058.324.18.441.117.117.304.153.562.102 2.215-.754 4.02-2.11 5.418-4.07 1.394-1.965 2.094-4.172 2.094-6.63 0-2.042-.493-3.93-1.473-5.656Zm0 0"/></svg>