<svg xmlns="http://www.w3.org/2000/svg" width="22" height="22"><path style="stroke:none;fill-rule:nonzero;fill:#e24329;fill-opacity:1" d="m11.008 22 4.047-13.535h-8.09Zm0 0"/><path style="stroke:none;fill-rule:nonzero;fill:#fca326;fill-opacity:1" d="m1.297 8.465-1.23 4.113a.944.944 0 0 0 .304 1.016L11.008 22Zm0 0"/><path style="stroke:none;fill-rule:nonzero;fill:#e24329;fill-opacity:1" d="M1.297 8.465h5.668L4.523.313c-.125-.418-.668-.418-.796 0Zm0 0"/><path style="stroke:none;fill-rule:nonzero;fill:#fca326;fill-opacity:1" d="m20.719 8.465 1.226 4.113a.95.95 0 0 1-.3 1.016L11.004 22Zm0 0"/><path style="stroke:none;fill-rule:nonzero;fill:#e24329;fill-opacity:1" d="M20.723 8.465h-5.668L17.488.313c.125-.418.668-.418.797 0Zm0 0"/><path style="stroke:none;fill-rule:nonzero;fill:#fc6d26;fill-opacity:1" d="M11.008 22 15.05 8.465h5.668Zm-.004 0L1.297 8.465h5.668L11.008 22Zm0 0"/></svg>