<svg xmlns="http://www.w3.org/2000/svg" width="22" height="22"><path style="stroke:none;fill-rule:nonzero;fill:#4285f4;fill-opacity:1" d="M21.98 11.234c0-.902-.074-1.562-.238-2.246H11.215v4.078h6.18c-.125 1.012-.797 2.54-2.293 3.563l-.02.137 3.328 2.527.23.023c2.118-1.918 3.34-4.738 3.34-8.082Zm0 0"/><path style="stroke:none;fill-rule:nonzero;fill:#34a853;fill-opacity:1" d="M11.215 21.98c3.027 0 5.57-.976 7.426-2.664L15.1 16.63c-.945.648-2.218 1.101-3.886 1.101a6.736 6.736 0 0 1-6.38-4.566l-.132.012-3.46 2.625-.048.12c1.844 3.59 5.633 6.06 10.02 6.06Zm0 0"/><path style="stroke:none;fill-rule:nonzero;fill:#fbbc05;fill-opacity:1" d="M4.836 13.164a6.652 6.652 0 0 1-.375-2.176c0-.754.137-1.488.363-2.172l-.008-.144-3.503-2.668-.114.05A10.846 10.846 0 0 0 0 10.989c0 1.774.438 3.446 1.2 4.934Zm0 0"/><path style="stroke:none;fill-rule:nonzero;fill:#eb4335;fill-opacity:1" d="M11.215 4.25c2.105 0 3.527.89 4.336 1.637l3.164-3.032C16.77 1.085 14.242 0 11.215 0 6.828 0 3.039 2.469 1.195 6.059L4.82 8.816a6.773 6.773 0 0 1 6.395-4.566Zm0 0"/></svg>